<svg xmlns="http://www.w3.org/2000/svg" viewBox="0 0 64 64" fill="none" role="img" aria-label="asmltr">
  <defs>
    <linearGradient id="asmltr" x1="6" y1="4" x2="58" y2="60" gradientUnits="userSpaceOnUse">
      <stop offset="0" stop-color="#8B5CF6"/>
      <stop offset="1" stop-color="#EC4899"/>
    </linearGradient>
  </defs>
  <g stroke="url(#asmltr)" stroke-width="2.6" stroke-linecap="round" stroke-linejoin="round">
    <!-- antenna + node -->
    <path d="M32 16V9"/>
    <circle cx="32" cy="6" r="2.4" fill="url(#asmltr)" stroke="none"/>
    <!-- broadcast arcs (routing / awareness) -->
    <path d="M27.6 5.6a7 7 0 0 0-2.3 3.5" opacity=".4"/>
    <path d="M36.4 5.6a7 7 0 0 1 2.3 3.5" opacity=".4"/>
    <!-- head (the likeness) -->
    <rect x="13" y="16" width="38" height="34" rx="9"/>
    <!-- side ports (the channels) -->
    <path d="M13 28H9M13 38H9M51 28h4M51 38h4" opacity=".65"/>
    <!-- eyes -->
    <circle cx="24" cy="30" r="3.4"/>
    <circle cx="40" cy="30" r="3.4"/>
    <circle cx="24" cy="30" r=".9" fill="url(#asmltr)" stroke="none"/>
    <circle cx="40" cy="30" r=".9" fill="url(#asmltr)" stroke="none"/>
    <!-- speech-waveform mouth -->
    <path d="M23 40.5v3M27 39v6M31 37.5v9M35 39.5v5M39 38.5v7"/>
  </g>
</svg>
